<svg width="802" height="380" viewBox="0 0 802 380" fill="none" xmlns="http://www.w3.org/2000/svg">
<mask id="path-1-outside-1_3_13" maskUnits="userSpaceOnUse" x="0.582031" y="8.40002" width="770" height="372" fill="black">
<rect fill="white" x="0.582031" y="8.40002" width="770" height="372"/>
<path d="M173 167C174.067 178.333 172.867 187 169.4 193C166.067 198.867 160.333 202.4 152.2 203.6C154.067 206.8 154.267 210.4 152.8 214.4C151.867 218.667 153.2 221.333 156.8 222.4C142.933 223.867 136.733 217.6 138.2 203.6C133 207.2 126.8 207.467 119.6 204.4C132.933 209.867 139.4 219.867 139 234.4C138.6 239.867 136.333 244.667 132.2 248.8C135.4 249.733 138.2 251.333 140.6 253.6C143.133 255.867 145.2 258.4 146.8 261.2C148.533 264 149.933 266.8 151 269.6C152.067 272.533 152.8 275 153.2 277C154.4 282.6 157.8 285.6 163.4 286C169.133 286 172 282.867 172 276.6C175.067 289.133 171.4 296.867 161 299.8C153.933 335 134.067 354.533 101.4 358.4C95.4 359.6 92.1333 363 91.6 368.6C91.3333 370.333 91.5333 371.933 92.2 373.4C93 375 94.1333 376.533 95.6 378C87.4667 376.4 82.8667 370.267 81.8 359.6C69.6667 356.267 59.2667 351.267 50.6 344.6C41.9333 338.067 35 329.6 29.8 319.2C25 311.333 19.4 308.2 13 309.8C10.3333 310.467 8.33334 311.733 7.00001 313.6C5.66668 315.467 5.00001 317.8 5.00001 320.6C-0.199991 309.533 0.533341 301.2 7.20001 295.6C13.4667 292.133 18.7333 291.733 23 294.4C21.5333 290 21.4667 285.6 22.8 281.2C24.1333 276.8 26.9333 272.6 31.2 268.6C39.6 260.067 40.0667 250.267 32.6 239.2C41.8 246 47.4 253.467 49.4 261.6C51.4 269.867 49.8667 278.533 44.8 287.6C48.5333 282.667 55 279.8 64.2 279C71 276.867 73.5333 272.6 71.8 266.2C75.1333 270.733 75.6 275.533 73.2 280.6C77.3333 281.667 81.3333 283.4 85.2 285.8C89.0667 288.2 92.5333 291.6 95.6 296C98.5333 298.667 101.533 300.2 104.6 300.6C107.8 301.133 110.8 300.267 113.6 298C112.133 305.067 108.2 309 101.8 309.8C103.667 312.467 104.467 315.067 104.2 317.6C104.067 320.133 103 322.933 101 326C97.4 332.667 97.1333 338.4 100.2 343.2C90.4667 336.267 86.6 327.533 88.6 317C83.5333 323.267 77.8 322.6 71.4 315C80.0667 317 84.6 314.067 85 306.2C85 297.533 81.0667 291.867 73.2 289.2C57.3333 288 48.2667 292.867 46 303.8C44.8 313 45.4 320.867 47.8 327.4C50.2 334.067 54.6 339.533 61 343.8C82.2 353.933 99.2667 355.933 112.2 349.8C125.267 344.6 130.6 337.533 128.2 328.6C127.267 326.467 126 324.933 124.4 324C122.933 323.067 120.867 322.733 118.2 323C122.733 321.133 126.533 321.067 129.6 322.8C132.8 324.533 135.2 327.733 136.8 332.4C150.667 308.8 150.067 286.6 135 265.8C132.733 263.933 130.467 262 128.2 260C126.067 258 123.867 256.067 121.6 254.2C121.333 258.733 120.333 262.333 118.6 265C116.867 267.667 114.067 269.333 110.2 270C114.867 261.733 114.4 255.6 108.8 251.6C105.333 250.933 101.8 249.933 98.2 248.6C94.7333 247.4 91.2667 245.867 87.8 244C78.7333 239.733 72.3333 241.6 68.6 249.6C68.6 234.667 68.6 218.6 68.6 201.4C68.7333 184.2 68.8 166.867 68.8 149.4C68.8 131.8 68.8 114.467 68.8 97.4C68.9333 80.3334 69 64.4 69 49.6C68.8667 47.2 68.4 45.3334 67.6 44C66.8 42.5334 65.8 41.5334 64.6 41C63.5333 40.3334 62.3333 40 61 40C59.6667 39.8667 58.4 39.8667 57.2 40C62.9333 35.3334 68.6667 30.6 74.4 25.8C80.1333 21 85.8667 16.2667 91.6 11.6L91.2 40.4C96.8 41.3334 100.733 43.7334 103 47.6C105.4 51.3334 106.2 56.4 105.4 62.8C104.733 60 103.6 58 102 56.8C100.533 55.6 98.5333 55 96 55C94.8 55.2667 93.7333 55.9334 92.8 57C92 58.0667 91.4667 59.7334 91.2 62L90.4 196.6V221C90.8 232.067 95.6667 237.8 105 238.2C115.133 238.867 121.133 234.467 123 225C123.533 217 120.933 212.067 115.2 210.2C118.533 214.2 119 217.667 116.6 220.6C112.733 224.2 108.2 223.933 103 219.8C98.4667 215.933 97.9333 210.333 101.4 203C103.4 200.867 105.6 199.067 108 197.6C110.533 196 113.4 194.733 116.6 193.8C129.533 189.4 134.467 181.867 131.4 171.2C135.4 172.933 138.067 175.2 139.4 178C140.733 180.8 141 183.933 140.2 187.4C142.333 184.6 144.8 182.467 147.6 181C150.533 179.4 154.067 178.733 158.2 179C162.867 178.733 166.333 177.667 168.6 175.8C171 173.8 172.467 170.867 173 167Z"/>
<path d="M271.305 203.6C266.371 196.133 259.771 194.267 251.505 198C243.371 203.733 234.238 207.067 224.105 208C216.771 215.6 208.771 219.2 200.105 218.8C205.571 212.533 205.505 207.267 199.905 203C197.638 202.333 195.438 201.6 193.305 200.8C191.171 200 188.971 199.067 186.705 198C179.638 196.4 175.171 198.267 173.305 203.6V65C176.638 71.1334 183.171 73.2 192.905 71.2C196.371 69.6 199.971 68.2667 203.705 67.2C207.438 66.1334 211.171 65.4667 214.905 65.2C227.971 63.3334 233.905 56.7334 232.705 45.4C238.705 52.8667 239.371 60 234.705 66.8C239.505 67.8667 244.038 69.1334 248.305 70.6C257.505 75 265.238 72.9334 271.505 64.4V106.2C270.971 112.733 274.705 116.733 282.705 118.2C269.771 126.2 256.905 134.067 244.105 141.8C231.305 149.533 218.438 157.4 205.505 165.4C202.171 167.933 199.771 170.333 198.305 172.6C196.838 174.867 196.171 177.133 196.305 179.4C197.905 189.533 207.971 194.2 226.505 193.4C239.838 191 247.105 184.8 248.305 174.8C248.705 164.133 242.171 160.2 228.705 163C235.905 158.733 242.971 154.467 249.905 150.2C256.971 145.933 264.105 141.6 271.305 137.2V203.6ZM248.305 126V96.4C246.438 81.2 236.238 74 217.705 74.8C224.905 85.3334 223.971 94.3334 214.905 101.8C216.771 92.3334 213.638 87.3334 205.505 86.8C199.105 88.1334 196.038 93.1334 196.305 101.8V159.4L224.105 141.6C221.838 140.4 219.905 139.067 218.305 137.6C216.705 136 215.571 134.267 214.905 132.4C212.638 122.933 215.305 115.667 222.905 110.6C219.971 115.8 219.705 120.933 222.105 126C224.505 129.2 227.438 131.067 230.905 131.6C234.505 132.133 238.638 131.467 243.305 129.6L248.305 126Z"/>
<path d="M360.409 202.6C353.743 208.467 354.543 213.8 362.809 218.6C355.343 221 348.743 218.667 343.009 211.6C339.409 208.533 336.009 209 332.809 213C332.009 208.867 333.943 205.733 338.609 203.6C333.143 203.467 328.076 202.2 323.409 199.8C316.076 195.133 310.543 196.067 306.809 202.6C305.609 193.667 307.876 188.4 313.609 186.8C311.076 186.133 308.809 185.067 306.809 183.6C304.809 182.133 303.209 180.133 302.009 177.6C301.076 172.4 297.943 169.467 292.609 168.8C293.943 163.867 298.209 161.467 305.409 161.6V94.4C305.809 80.1334 301.809 70.2667 293.409 64.8C314.743 62.8 325.809 72.4 326.609 93.6V177.4C329.409 165.667 336.743 161.6 348.609 165.2C341.276 167.2 337.209 171.267 336.409 177.4C336.143 185 340.743 189.667 350.209 191.4C362.876 192.067 372.409 189.4 378.809 183.4C378.943 183.267 378.809 184.133 378.409 186C378.009 187.733 377.076 189.8 375.609 192.2C374.276 194.467 372.343 196.667 369.809 198.8C367.409 200.8 364.276 202.067 360.409 202.6ZM326.609 26.4C326.609 29.7334 326.743 32.7334 327.009 35.4C327.276 37.9334 328.009 40.0667 329.209 41.8C330.409 43.4 332.209 44.4667 334.609 45C337.143 45.5334 340.609 45.3334 345.009 44.4C340.343 50.8 335.543 54.9334 330.609 56.8C325.809 58.5334 321.409 58.8667 317.409 57.8C313.543 56.7334 310.343 54.6667 307.809 51.6C305.276 48.5334 304.009 45.2667 304.009 41.8C303.209 38.3334 301.276 36.1334 298.209 35.2C295.143 34.1334 290.943 34.0667 285.609 35C292.409 30.8667 299.209 26.8 306.009 22.8C312.943 18.6667 319.809 14.5334 326.609 10.4V26.4Z"/>
<path d="M472.294 26.4C480.427 33.2 488.827 32.8667 497.494 25.4C502.827 22.0667 507.894 20.3334 512.694 20.2C517.494 20.0667 522.294 21.7334 527.094 25.2C533.894 27.2 537.027 24.6 536.494 17.4C535.56 14.3334 533.227 12.4 529.494 11.6C540.96 10.8 545.76 15.4 543.894 25.4C542.96 29.2667 540.427 31.7334 536.294 32.8C544.16 31.7334 548.76 33.5334 550.094 38.2C553.427 43.1334 557.76 43.8667 563.094 40.4C560.027 48.9334 553.16 53 542.494 52.6C540.227 51.9334 538.16 50.9334 536.294 49.6C534.427 48.2667 532.894 46.4667 531.694 44.2C530.227 46.8667 528.427 48.7334 526.294 49.8C524.16 50.8667 521.76 51.2667 519.094 51C514.16 49.9334 511.694 46.5334 511.694 40.8C515.027 43.7334 518.16 43.3334 521.094 39.6C521.094 34.9334 518.96 32.8 514.694 33.2C507.894 33.6 502.894 35.6667 499.694 39.4C496.627 43.1334 495.427 48.8 496.094 56.4C499.16 65.7334 506.56 68.8667 518.294 65.8C514.694 75.2667 507.294 78.2667 496.094 74.8V204.8C493.16 198.667 486.427 196.6 475.894 198.6C468.294 201.933 460.56 203.867 452.694 204.4C446.16 205.467 441.294 207.667 438.094 211C435.027 214.333 433.827 219 434.494 225C427.96 217.533 427.16 210.2 432.094 203C429.827 202.333 427.494 201.733 425.094 201.2C422.694 200.533 420.36 199.733 418.094 198.8C408.627 194.4 400.56 196.733 393.894 205.8V161.6C394.294 155.333 390.36 151.2 382.094 149.2C395.56 141.067 408.894 132.933 422.094 124.8C435.427 116.667 448.827 108.467 462.294 100.2C468.294 95.6667 471.627 91.3334 472.294 87.2V26.4ZM423.094 137.4L418.094 140.8V172.2C419.827 187.667 430.427 195.2 449.894 194.8C442.427 183.333 443.36 173.867 452.694 166.4C450.694 176.4 453.894 181.6 462.294 182C465.76 181.2 468.36 179.6 470.094 177.2C471.827 174.667 472.56 171.067 472.294 166.4V106.6L442.894 125.2C445.827 126.533 448.094 127.933 449.694 129.4C451.294 130.733 452.294 132.333 452.694 134.2C455.227 144.067 452.56 151.8 444.694 157.4C447.627 151.933 447.76 146.4 445.094 140.8C440.294 134.4 432.96 133.267 423.094 137.4Z"/>
<path d="M616.227 203.6C611.293 196.133 604.693 194.267 596.427 198C588.293 203.733 579.16 207.067 569.027 208C561.693 215.6 553.693 219.2 545.027 218.8C550.493 212.533 550.427 207.267 544.827 203C542.56 202.333 540.36 201.6 538.227 200.8C536.093 200 533.893 199.067 531.627 198C524.56 196.4 520.093 198.267 518.227 203.6V65C521.56 71.1334 528.093 73.2 537.827 71.2C541.293 69.6 544.893 68.2667 548.627 67.2C552.36 66.1334 556.093 65.4667 559.827 65.2C572.893 63.3334 578.827 56.7334 577.627 45.4C583.627 52.8667 584.293 60 579.627 66.8C584.427 67.8667 588.96 69.1334 593.227 70.6C602.427 75 610.16 72.9334 616.427 64.4V106.2C615.893 112.733 619.627 116.733 627.627 118.2C614.693 126.2 601.827 134.067 589.027 141.8C576.227 149.533 563.36 157.4 550.427 165.4C547.093 167.933 544.693 170.333 543.227 172.6C541.76 174.867 541.093 177.133 541.227 179.4C542.827 189.533 552.893 194.2 571.427 193.4C584.76 191 592.027 184.8 593.227 174.8C593.627 164.133 587.093 160.2 573.627 163C580.827 158.733 587.893 154.467 594.827 150.2C601.893 145.933 609.027 141.6 616.227 137.2V203.6ZM593.227 126V96.4C591.36 81.2 581.16 74 562.627 74.8C569.827 85.3334 568.893 94.3334 559.827 101.8C561.693 92.3334 558.56 87.3334 550.427 86.8C544.027 88.1334 540.96 93.1334 541.227 101.8V159.4L569.027 141.6C566.76 140.4 564.827 139.067 563.227 137.6C561.627 136 560.493 134.267 559.827 132.4C557.56 122.933 560.227 115.667 567.827 110.6C564.893 115.8 564.627 120.933 567.027 126C569.427 129.2 572.36 131.067 575.827 131.6C579.427 132.133 583.56 131.467 588.227 129.6L593.227 126Z"/>
<path d="M655.731 63.8C659.598 73 666.131 75.4667 675.331 71.2C682.931 67.0667 691.065 64.4667 699.731 63.4C705.998 57.1334 705.131 51.8 697.131 47.4C704.731 44.6 711.331 46.8 716.931 54C719.065 55.4667 720.931 56.1334 722.531 56C724.131 55.8667 725.731 54.8 727.331 52.8C728.531 56.8 726.731 59.8667 721.931 62C724.598 62.1334 727.198 62.6 729.731 63.4C732.398 64.0667 734.865 65 737.131 66.2C744.465 70.6 749.998 69.6667 753.731 63.4C755.198 72.2 752.998 77.6 747.131 79.6C749.665 80.2667 751.865 81.3334 753.731 82.8C755.731 84.1334 757.331 86.1334 758.531 88.8C759.998 94.2667 763.265 97.2 768.331 97.6C767.131 102.8 762.931 105.2 755.731 104.8V173.2C754.798 187.733 758.731 197.8 767.531 203.4C745.798 205.267 734.531 195.4 733.731 173.8V89.2C730.931 100.8 723.531 104.733 711.531 101C718.865 99.2667 722.931 95.3334 723.731 89.2C724.131 81.2 719.598 76.4 710.131 74.8C696.665 74.1334 686.865 76.7334 680.731 82.6V177.6C681.131 191.867 686.531 199.267 696.931 199.8C694.398 198.733 693.131 196.667 693.131 193.6C693.798 186.533 697.798 184.067 705.131 186.2C705.931 180.467 709.865 178.2 716.931 179.4C711.065 180.467 709.265 184.067 711.531 190.2C712.998 195 712.865 199.533 711.131 203.8C705.131 212.467 696.065 212.6 683.931 204.2C672.731 196.067 663.331 195.8 655.731 203.4V160C651.998 148.8 643.598 146.333 630.531 152.6C635.331 139.267 643.731 133.6 655.731 135.6V63.8Z"/>
</mask>
<path d="M173 167C174.067 178.333 172.867 187 169.4 193C166.067 198.867 160.333 202.4 152.2 203.6C154.067 206.8 154.267 210.4 152.8 214.4C151.867 218.667 153.2 221.333 156.8 222.4C142.933 223.867 136.733 217.6 138.2 203.6C133 207.2 126.8 207.467 119.6 204.4C132.933 209.867 139.4 219.867 139 234.4C138.6 239.867 136.333 244.667 132.2 248.8C135.4 249.733 138.2 251.333 140.6 253.6C143.133 255.867 145.2 258.4 146.8 261.2C148.533 264 149.933 266.8 151 269.6C152.067 272.533 152.8 275 153.2 277C154.4 282.6 157.8 285.6 163.4 286C169.133 286 172 282.867 172 276.6C175.067 289.133 171.4 296.867 161 299.8C153.933 335 134.067 354.533 101.4 358.4C95.4 359.6 92.1333 363 91.6 368.6C91.3333 370.333 91.5333 371.933 92.2 373.4C93 375 94.1333 376.533 95.6 378C87.4667 376.4 82.8667 370.267 81.8 359.6C69.6667 356.267 59.2667 351.267 50.6 344.6C41.9333 338.067 35 329.6 29.8 319.2C25 311.333 19.4 308.2 13 309.8C10.3333 310.467 8.33334 311.733 7.00001 313.6C5.66668 315.467 5.00001 317.8 5.00001 320.6C-0.199991 309.533 0.533341 301.2 7.20001 295.6C13.4667 292.133 18.7333 291.733 23 294.4C21.5333 290 21.4667 285.6 22.8 281.2C24.1333 276.8 26.9333 272.6 31.2 268.6C39.6 260.067 40.0667 250.267 32.6 239.2C41.8 246 47.4 253.467 49.4 261.6C51.4 269.867 49.8667 278.533 44.8 287.6C48.5333 282.667 55 279.8 64.2 279C71 276.867 73.5333 272.6 71.8 266.2C75.1333 270.733 75.6 275.533 73.2 280.6C77.3333 281.667 81.3333 283.4 85.2 285.8C89.0667 288.2 92.5333 291.6 95.6 296C98.5333 298.667 101.533 300.2 104.6 300.6C107.8 301.133 110.8 300.267 113.6 298C112.133 305.067 108.2 309 101.8 309.8C103.667 312.467 104.467 315.067 104.2 317.6C104.067 320.133 103 322.933 101 326C97.4 332.667 97.1333 338.4 100.2 343.2C90.4667 336.267 86.6 327.533 88.6 317C83.5333 323.267 77.8 322.6 71.4 315C80.0667 317 84.6 314.067 85 306.2C85 297.533 81.0667 291.867 73.2 289.2C57.3333 288 48.2667 292.867 46 303.8C44.8 313 45.4 320.867 47.8 327.4C50.2 334.067 54.6 339.533 61 343.8C82.2 353.933 99.2667 355.933 112.2 349.8C125.267 344.6 130.6 337.533 128.2 328.6C127.267 326.467 126 324.933 124.4 324C122.933 323.067 120.867 322.733 118.2 323C122.733 321.133 126.533 321.067 129.6 322.8C132.8 324.533 135.2 327.733 136.8 332.4C150.667 308.8 150.067 286.6 135 265.8C132.733 263.933 130.467 262 128.2 260C126.067 258 123.867 256.067 121.6 254.2C121.333 258.733 120.333 262.333 118.6 265C116.867 267.667 114.067 269.333 110.2 270C114.867 261.733 114.4 255.6 108.8 251.6C105.333 250.933 101.8 249.933 98.2 248.6C94.7333 247.4 91.2667 245.867 87.8 244C78.7333 239.733 72.3333 241.6 68.6 249.6C68.6 234.667 68.6 218.6 68.6 201.4C68.7333 184.2 68.8 166.867 68.8 149.4C68.8 131.8 68.8 114.467 68.8 97.4C68.9333 80.3334 69 64.4 69 49.6C68.8667 47.2 68.4 45.3334 67.6 44C66.8 42.5334 65.8 41.5334 64.6 41C63.5333 40.3334 62.3333 40 61 40C59.6667 39.8667 58.4 39.8667 57.2 40C62.9333 35.3334 68.6667 30.6 74.4 25.8C80.1333 21 85.8667 16.2667 91.6 11.6L91.2 40.4C96.8 41.3334 100.733 43.7334 103 47.6C105.4 51.3334 106.2 56.4 105.4 62.8C104.733 60 103.6 58 102 56.8C100.533 55.6 98.5333 55 96 55C94.8 55.2667 93.7333 55.9334 92.8 57C92 58.0667 91.4667 59.7334 91.2 62L90.4 196.6V221C90.8 232.067 95.6667 237.8 105 238.2C115.133 238.867 121.133 234.467 123 225C123.533 217 120.933 212.067 115.2 210.2C118.533 214.2 119 217.667 116.6 220.6C112.733 224.2 108.2 223.933 103 219.8C98.4667 215.933 97.9333 210.333 101.4 203C103.4 200.867 105.6 199.067 108 197.6C110.533 196 113.4 194.733 116.6 193.8C129.533 189.4 134.467 181.867 131.4 171.2C135.4 172.933 138.067 175.2 139.4 178C140.733 180.8 141 183.933 140.2 187.4C142.333 184.6 144.8 182.467 147.6 181C150.533 179.4 154.067 178.733 158.2 179C162.867 178.733 166.333 177.667 168.6 175.8C171 173.8 172.467 170.867 173 167Z" fill="white"/>
<path d="M271.305 203.6C266.371 196.133 259.771 194.267 251.505 198C243.371 203.733 234.238 207.067 224.105 208C216.771 215.6 208.771 219.2 200.105 218.8C205.571 212.533 205.505 207.267 199.905 203C197.638 202.333 195.438 201.6 193.305 200.8C191.171 200 188.971 199.067 186.705 198C179.638 196.4 175.171 198.267 173.305 203.6V65C176.638 71.1334 183.171 73.2 192.905 71.2C196.371 69.6 199.971 68.2667 203.705 67.2C207.438 66.1334 211.171 65.4667 214.905 65.2C227.971 63.3334 233.905 56.7334 232.705 45.4C238.705 52.8667 239.371 60 234.705 66.8C239.505 67.8667 244.038 69.1334 248.305 70.6C257.505 75 265.238 72.9334 271.505 64.4V106.2C270.971 112.733 274.705 116.733 282.705 118.2C269.771 126.2 256.905 134.067 244.105 141.8C231.305 149.533 218.438 157.4 205.505 165.4C202.171 167.933 199.771 170.333 198.305 172.6C196.838 174.867 196.171 177.133 196.305 179.4C197.905 189.533 207.971 194.2 226.505 193.4C239.838 191 247.105 184.8 248.305 174.8C248.705 164.133 242.171 160.2 228.705 163C235.905 158.733 242.971 154.467 249.905 150.2C256.971 145.933 264.105 141.6 271.305 137.2V203.6ZM248.305 126V96.4C246.438 81.2 236.238 74 217.705 74.8C224.905 85.3334 223.971 94.3334 214.905 101.8C216.771 92.3334 213.638 87.3334 205.505 86.8C199.105 88.1334 196.038 93.1334 196.305 101.8V159.4L224.105 141.6C221.838 140.4 219.905 139.067 218.305 137.6C216.705 136 215.571 134.267 214.905 132.4C212.638 122.933 215.305 115.667 222.905 110.6C219.971 115.8 219.705 120.933 222.105 126C224.505 129.2 227.438 131.067 230.905 131.6C234.505 132.133 238.638 131.467 243.305 129.6L248.305 126Z" fill="white"/>
<path d="M360.409 202.6C353.743 208.467 354.543 213.8 362.809 218.6C355.343 221 348.743 218.667 343.009 211.6C339.409 208.533 336.009 209 332.809 213C332.009 208.867 333.943 205.733 338.609 203.6C333.143 203.467 328.076 202.2 323.409 199.8C316.076 195.133 310.543 196.067 306.809 202.6C305.609 193.667 307.876 188.4 313.609 186.8C311.076 186.133 308.809 185.067 306.809 183.6C304.809 182.133 303.209 180.133 302.009 177.6C301.076 172.4 297.943 169.467 292.609 168.8C293.943 163.867 298.209 161.467 305.409 161.6V94.4C305.809 80.1334 301.809 70.2667 293.409 64.8C314.743 62.8 325.809 72.4 326.609 93.6V177.4C329.409 165.667 336.743 161.6 348.609 165.2C341.276 167.2 337.209 171.267 336.409 177.4C336.143 185 340.743 189.667 350.209 191.4C362.876 192.067 372.409 189.4 378.809 183.4C378.943 183.267 378.809 184.133 378.409 186C378.009 187.733 377.076 189.8 375.609 192.2C374.276 194.467 372.343 196.667 369.809 198.8C367.409 200.8 364.276 202.067 360.409 202.6ZM326.609 26.4C326.609 29.7334 326.743 32.7334 327.009 35.4C327.276 37.9334 328.009 40.0667 329.209 41.8C330.409 43.4 332.209 44.4667 334.609 45C337.143 45.5334 340.609 45.3334 345.009 44.4C340.343 50.8 335.543 54.9334 330.609 56.8C325.809 58.5334 321.409 58.8667 317.409 57.8C313.543 56.7334 310.343 54.6667 307.809 51.6C305.276 48.5334 304.009 45.2667 304.009 41.8C303.209 38.3334 301.276 36.1334 298.209 35.2C295.143 34.1334 290.943 34.0667 285.609 35C292.409 30.8667 299.209 26.8 306.009 22.8C312.943 18.6667 319.809 14.5334 326.609 10.4V26.4Z" fill="white"/>
<path d="M472.294 26.4C480.427 33.2 488.827 32.8667 497.494 25.4C502.827 22.0667 507.894 20.3334 512.694 20.2C517.494 20.0667 522.294 21.7334 527.094 25.2C533.894 27.2 537.027 24.6 536.494 17.4C535.56 14.3334 533.227 12.4 529.494 11.6C540.96 10.8 545.76 15.4 543.894 25.4C542.96 29.2667 540.427 31.7334 536.294 32.8C544.16 31.7334 548.76 33.5334 550.094 38.2C553.427 43.1334 557.76 43.8667 563.094 40.4C560.027 48.9334 553.16 53 542.494 52.6C540.227 51.9334 538.16 50.9334 536.294 49.6C534.427 48.2667 532.894 46.4667 531.694 44.2C530.227 46.8667 528.427 48.7334 526.294 49.8C524.16 50.8667 521.76 51.2667 519.094 51C514.16 49.9334 511.694 46.5334 511.694 40.8C515.027 43.7334 518.16 43.3334 521.094 39.6C521.094 34.9334 518.96 32.8 514.694 33.2C507.894 33.6 502.894 35.6667 499.694 39.4C496.627 43.1334 495.427 48.8 496.094 56.4C499.16 65.7334 506.56 68.8667 518.294 65.8C514.694 75.2667 507.294 78.2667 496.094 74.8V204.8C493.16 198.667 486.427 196.6 475.894 198.6C468.294 201.933 460.56 203.867 452.694 204.4C446.16 205.467 441.294 207.667 438.094 211C435.027 214.333 433.827 219 434.494 225C427.96 217.533 427.16 210.2 432.094 203C429.827 202.333 427.494 201.733 425.094 201.2C422.694 200.533 420.36 199.733 418.094 198.8C408.627 194.4 400.56 196.733 393.894 205.8V161.6C394.294 155.333 390.36 151.2 382.094 149.2C395.56 141.067 408.894 132.933 422.094 124.8C435.427 116.667 448.827 108.467 462.294 100.2C468.294 95.6667 471.627 91.3334 472.294 87.2V26.4ZM423.094 137.4L418.094 140.8V172.2C419.827 187.667 430.427 195.2 449.894 194.8C442.427 183.333 443.36 173.867 452.694 166.4C450.694 176.4 453.894 181.6 462.294 182C465.76 181.2 468.36 179.6 470.094 177.2C471.827 174.667 472.56 171.067 472.294 166.4V106.6L442.894 125.2C445.827 126.533 448.094 127.933 449.694 129.4C451.294 130.733 452.294 132.333 452.694 134.2C455.227 144.067 452.56 151.8 444.694 157.4C447.627 151.933 447.76 146.4 445.094 140.8C440.294 134.4 432.96 133.267 423.094 137.4Z" fill="white"/>
<path d="M616.227 203.6C611.293 196.133 604.693 194.267 596.427 198C588.293 203.733 579.16 207.067 569.027 208C561.693 215.6 553.693 219.2 545.027 218.8C550.493 212.533 550.427 207.267 544.827 203C542.56 202.333 540.36 201.6 538.227 200.8C536.093 200 533.893 199.067 531.627 198C524.56 196.4 520.093 198.267 518.227 203.6V65C521.56 71.1334 528.093 73.2 537.827 71.2C541.293 69.6 544.893 68.2667 548.627 67.2C552.36 66.1334 556.093 65.4667 559.827 65.2C572.893 63.3334 578.827 56.7334 577.627 45.4C583.627 52.8667 584.293 60 579.627 66.8C584.427 67.8667 588.96 69.1334 593.227 70.6C602.427 75 610.16 72.9334 616.427 64.4V106.2C615.893 112.733 619.627 116.733 627.627 118.2C614.693 126.2 601.827 134.067 589.027 141.8C576.227 149.533 563.36 157.4 550.427 165.4C547.093 167.933 544.693 170.333 543.227 172.6C541.76 174.867 541.093 177.133 541.227 179.4C542.827 189.533 552.893 194.2 571.427 193.4C584.76 191 592.027 184.8 593.227 174.8C593.627 164.133 587.093 160.2 573.627 163C580.827 158.733 587.893 154.467 594.827 150.2C601.893 145.933 609.027 141.6 616.227 137.2V203.6ZM593.227 126V96.4C591.36 81.2 581.16 74 562.627 74.8C569.827 85.3334 568.893 94.3334 559.827 101.8C561.693 92.3334 558.56 87.3334 550.427 86.8C544.027 88.1334 540.96 93.1334 541.227 101.8V159.4L569.027 141.6C566.76 140.4 564.827 139.067 563.227 137.6C561.627 136 560.493 134.267 559.827 132.4C557.56 122.933 560.227 115.667 567.827 110.6C564.893 115.8 564.627 120.933 567.027 126C569.427 129.2 572.36 131.067 575.827 131.6C579.427 132.133 583.56 131.467 588.227 129.6L593.227 126Z" fill="white"/>
<path d="M655.731 63.8C659.598 73 666.131 75.4667 675.331 71.2C682.931 67.0667 691.065 64.4667 699.731 63.4C705.998 57.1334 705.131 51.8 697.131 47.4C704.731 44.6 711.331 46.8 716.931 54C719.065 55.4667 720.931 56.1334 722.531 56C724.131 55.8667 725.731 54.8 727.331 52.8C728.531 56.8 726.731 59.8667 721.931 62C724.598 62.1334 727.198 62.6 729.731 63.4C732.398 64.0667 734.865 65 737.131 66.2C744.465 70.6 749.998 69.6667 753.731 63.4C755.198 72.2 752.998 77.6 747.131 79.6C749.665 80.2667 751.865 81.3334 753.731 82.8C755.731 84.1334 757.331 86.1334 758.531 88.8C759.998 94.2667 763.265 97.2 768.331 97.6C767.131 102.8 762.931 105.2 755.731 104.8V173.2C754.798 187.733 758.731 197.8 767.531 203.4C745.798 205.267 734.531 195.4 733.731 173.8V89.2C730.931 100.8 723.531 104.733 711.531 101C718.865 99.2667 722.931 95.3334 723.731 89.2C724.131 81.2 719.598 76.4 710.131 74.8C696.665 74.1334 686.865 76.7334 680.731 82.6V177.6C681.131 191.867 686.531 199.267 696.931 199.8C694.398 198.733 693.131 196.667 693.131 193.6C693.798 186.533 697.798 184.067 705.131 186.2C705.931 180.467 709.865 178.2 716.931 179.4C711.065 180.467 709.265 184.067 711.531 190.2C712.998 195 712.865 199.533 711.131 203.8C705.131 212.467 696.065 212.6 683.931 204.2C672.731 196.067 663.331 195.8 655.731 203.4V160C651.998 148.8 643.598 146.333 630.531 152.6C635.331 139.267 643.731 133.6 655.731 135.6V63.8Z" fill="white"/>
<path d="M173 167C174.067 178.333 172.867 187 169.4 193C166.067 198.867 160.333 202.4 152.2 203.6C154.067 206.8 154.267 210.4 152.8 214.4C151.867 218.667 153.2 221.333 156.8 222.4C142.933 223.867 136.733 217.6 138.2 203.6C133 207.2 126.8 207.467 119.6 204.4C132.933 209.867 139.4 219.867 139 234.4C138.6 239.867 136.333 244.667 132.2 248.8C135.4 249.733 138.2 251.333 140.6 253.6C143.133 255.867 145.2 258.4 146.8 261.2C148.533 264 149.933 266.8 151 269.6C152.067 272.533 152.8 275 153.2 277C154.4 282.6 157.8 285.6 163.4 286C169.133 286 172 282.867 172 276.6C175.067 289.133 171.4 296.867 161 299.8C153.933 335 134.067 354.533 101.4 358.4C95.4 359.6 92.1333 363 91.6 368.6C91.3333 370.333 91.5333 371.933 92.2 373.4C93 375 94.1333 376.533 95.6 378C87.4667 376.4 82.8667 370.267 81.8 359.6C69.6667 356.267 59.2667 351.267 50.6 344.6C41.9333 338.067 35 329.6 29.8 319.2C25 311.333 19.4 308.2 13 309.8C10.3333 310.467 8.33334 311.733 7.00001 313.6C5.66668 315.467 5.00001 317.8 5.00001 320.6C-0.199991 309.533 0.533341 301.2 7.20001 295.6C13.4667 292.133 18.7333 291.733 23 294.4C21.5333 290 21.4667 285.6 22.8 281.2C24.1333 276.8 26.9333 272.6 31.2 268.6C39.6 260.067 40.0667 250.267 32.6 239.2C41.8 246 47.4 253.467 49.4 261.6C51.4 269.867 49.8667 278.533 44.8 287.6C48.5333 282.667 55 279.8 64.2 279C71 276.867 73.5333 272.6 71.8 266.2C75.1333 270.733 75.6 275.533 73.2 280.6C77.3333 281.667 81.3333 283.4 85.2 285.8C89.0667 288.2 92.5333 291.6 95.6 296C98.5333 298.667 101.533 300.2 104.6 300.6C107.8 301.133 110.8 300.267 113.6 298C112.133 305.067 108.2 309 101.8 309.8C103.667 312.467 104.467 315.067 104.2 317.6C104.067 320.133 103 322.933 101 326C97.4 332.667 97.1333 338.4 100.2 343.2C90.4667 336.267 86.6 327.533 88.6 317C83.5333 323.267 77.8 322.6 71.4 315C80.0667 317 84.6 314.067 85 306.2C85 297.533 81.0667 291.867 73.2 289.2C57.3333 288 48.2667 292.867 46 303.8C44.8 313 45.4 320.867 47.8 327.4C50.2 334.067 54.6 339.533 61 343.8C82.2 353.933 99.2667 355.933 112.2 349.8C125.267 344.6 130.6 337.533 128.2 328.6C127.267 326.467 126 324.933 124.4 324C122.933 323.067 120.867 322.733 118.2 323C122.733 321.133 126.533 321.067 129.6 322.8C132.8 324.533 135.2 327.733 136.8 332.4C150.667 308.8 150.067 286.6 135 265.8C132.733 263.933 130.467 262 128.2 260C126.067 258 123.867 256.067 121.6 254.2C121.333 258.733 120.333 262.333 118.6 265C116.867 267.667 114.067 269.333 110.2 270C114.867 261.733 114.4 255.6 108.8 251.6C105.333 250.933 101.8 249.933 98.2 248.6C94.7333 247.4 91.2667 245.867 87.8 244C78.7333 239.733 72.3333 241.6 68.6 249.6C68.6 234.667 68.6 218.6 68.6 201.4C68.7333 184.2 68.8 166.867 68.8 149.4C68.8 131.8 68.8 114.467 68.8 97.4C68.9333 80.3334 69 64.4 69 49.6C68.8667 47.2 68.4 45.3334 67.6 44C66.8 42.5334 65.8 41.5334 64.6 41C63.5333 40.3334 62.3333 40 61 40C59.6667 39.8667 58.4 39.8667 57.2 40C62.9333 35.3334 68.6667 30.6 74.4 25.8C80.1333 21 85.8667 16.2667 91.6 11.6L91.2 40.4C96.8 41.3334 100.733 43.7334 103 47.6C105.4 51.3334 106.2 56.4 105.4 62.8C104.733 60 103.6 58 102 56.8C100.533 55.6 98.5333 55 96 55C94.8 55.2667 93.7333 55.9334 92.8 57C92 58.0667 91.4667 59.7334 91.2 62L90.4 196.6V221C90.8 232.067 95.6667 237.8 105 238.2C115.133 238.867 121.133 234.467 123 225C123.533 217 120.933 212.067 115.2 210.2C118.533 214.2 119 217.667 116.6 220.6C112.733 224.2 108.2 223.933 103 219.8C98.4667 215.933 97.9333 210.333 101.4 203C103.4 200.867 105.6 199.067 108 197.6C110.533 196 113.4 194.733 116.6 193.8C129.533 189.4 134.467 181.867 131.4 171.2C135.4 172.933 138.067 175.2 139.4 178C140.733 180.8 141 183.933 140.2 187.4C142.333 184.6 144.8 182.467 147.6 181C150.533 179.4 154.067 178.733 158.2 179C162.867 178.733 166.333 177.667 168.6 175.8C171 173.8 172.467 170.867 173 167Z" stroke="black" stroke-width="2" mask="url(#path-1-outside-1_3_13)"/>
<path d="M271.305 203.6C266.371 196.133 259.771 194.267 251.505 198C243.371 203.733 234.238 207.067 224.105 208C216.771 215.6 208.771 219.2 200.105 218.8C205.571 212.533 205.505 207.267 199.905 203C197.638 202.333 195.438 201.6 193.305 200.8C191.171 200 188.971 199.067 186.705 198C179.638 196.4 175.171 198.267 173.305 203.6V65C176.638 71.1334 183.171 73.2 192.905 71.2C196.371 69.6 199.971 68.2667 203.705 67.2C207.438 66.1334 211.171 65.4667 214.905 65.2C227.971 63.3334 233.905 56.7334 232.705 45.4C238.705 52.8667 239.371 60 234.705 66.8C239.505 67.8667 244.038 69.1334 248.305 70.6C257.505 75 265.238 72.9334 271.505 64.4V106.2C270.971 112.733 274.705 116.733 282.705 118.2C269.771 126.2 256.905 134.067 244.105 141.8C231.305 149.533 218.438 157.4 205.505 165.4C202.171 167.933 199.771 170.333 198.305 172.6C196.838 174.867 196.171 177.133 196.305 179.4C197.905 189.533 207.971 194.2 226.505 193.4C239.838 191 247.105 184.8 248.305 174.8C248.705 164.133 242.171 160.2 228.705 163C235.905 158.733 242.971 154.467 249.905 150.2C256.971 145.933 264.105 141.6 271.305 137.2V203.6ZM248.305 126V96.4C246.438 81.2 236.238 74 217.705 74.8C224.905 85.3334 223.971 94.3334 214.905 101.8C216.771 92.3334 213.638 87.3334 205.505 86.8C199.105 88.1334 196.038 93.1334 196.305 101.8V159.4L224.105 141.6C221.838 140.4 219.905 139.067 218.305 137.6C216.705 136 215.571 134.267 214.905 132.4C212.638 122.933 215.305 115.667 222.905 110.6C219.971 115.8 219.705 120.933 222.105 126C224.505 129.2 227.438 131.067 230.905 131.6C234.505 132.133 238.638 131.467 243.305 129.6L248.305 126Z" stroke="black" stroke-width="2" mask="url(#path-1-outside-1_3_13)"/>
<path d="M360.409 202.6C353.743 208.467 354.543 213.8 362.809 218.6C355.343 221 348.743 218.667 343.009 211.6C339.409 208.533 336.009 209 332.809 213C332.009 208.867 333.943 205.733 338.609 203.6C333.143 203.467 328.076 202.2 323.409 199.8C316.076 195.133 310.543 196.067 306.809 202.6C305.609 193.667 307.876 188.4 313.609 186.8C311.076 186.133 308.809 185.067 306.809 183.6C304.809 182.133 303.209 180.133 302.009 177.6C301.076 172.4 297.943 169.467 292.609 168.8C293.943 163.867 298.209 161.467 305.409 161.6V94.4C305.809 80.1334 301.809 70.2667 293.409 64.8C314.743 62.8 325.809 72.4 326.609 93.6V177.4C329.409 165.667 336.743 161.6 348.609 165.2C341.276 167.2 337.209 171.267 336.409 177.4C336.143 185 340.743 189.667 350.209 191.4C362.876 192.067 372.409 189.4 378.809 183.4C378.943 183.267 378.809 184.133 378.409 186C378.009 187.733 377.076 189.8 375.609 192.2C374.276 194.467 372.343 196.667 369.809 198.8C367.409 200.8 364.276 202.067 360.409 202.6ZM326.609 26.4C326.609 29.7334 326.743 32.7334 327.009 35.4C327.276 37.9334 328.009 40.0667 329.209 41.8C330.409 43.4 332.209 44.4667 334.609 45C337.143 45.5334 340.609 45.3334 345.009 44.4C340.343 50.8 335.543 54.9334 330.609 56.8C325.809 58.5334 321.409 58.8667 317.409 57.8C313.543 56.7334 310.343 54.6667 307.809 51.6C305.276 48.5334 304.009 45.2667 304.009 41.8C303.209 38.3334 301.276 36.1334 298.209 35.2C295.143 34.1334 290.943 34.0667 285.609 35C292.409 30.8667 299.209 26.8 306.009 22.8C312.943 18.6667 319.809 14.5334 326.609 10.4V26.4Z" stroke="black" stroke-width="2" mask="url(#path-1-outside-1_3_13)"/>
<path d="M472.294 26.4C480.427 33.2 488.827 32.8667 497.494 25.4C502.827 22.0667 507.894 20.3334 512.694 20.2C517.494 20.0667 522.294 21.7334 527.094 25.2C533.894 27.2 537.027 24.6 536.494 17.4C535.56 14.3334 533.227 12.4 529.494 11.6C540.96 10.8 545.76 15.4 543.894 25.4C542.96 29.2667 540.427 31.7334 536.294 32.8C544.16 31.7334 548.76 33.5334 550.094 38.2C553.427 43.1334 557.76 43.8667 563.094 40.4C560.027 48.9334 553.16 53 542.494 52.6C540.227 51.9334 538.16 50.9334 536.294 49.6C534.427 48.2667 532.894 46.4667 531.694 44.2C530.227 46.8667 528.427 48.7334 526.294 49.8C524.16 50.8667 521.76 51.2667 519.094 51C514.16 49.9334 511.694 46.5334 511.694 40.8C515.027 43.7334 518.16 43.3334 521.094 39.6C521.094 34.9334 518.96 32.8 514.694 33.2C507.894 33.6 502.894 35.6667 499.694 39.4C496.627 43.1334 495.427 48.8 496.094 56.4C499.16 65.7334 506.56 68.8667 518.294 65.8C514.694 75.2667 507.294 78.2667 496.094 74.8V204.8C493.16 198.667 486.427 196.6 475.894 198.6C468.294 201.933 460.56 203.867 452.694 204.4C446.16 205.467 441.294 207.667 438.094 211C435.027 214.333 433.827 219 434.494 225C427.96 217.533 427.16 210.2 432.094 203C429.827 202.333 427.494 201.733 425.094 201.2C422.694 200.533 420.36 199.733 418.094 198.8C408.627 194.4 400.56 196.733 393.894 205.8V161.6C394.294 155.333 390.36 151.2 382.094 149.2C395.56 141.067 408.894 132.933 422.094 124.8C435.427 116.667 448.827 108.467 462.294 100.2C468.294 95.6667 471.627 91.3334 472.294 87.2V26.4ZM423.094 137.4L418.094 140.8V172.2C419.827 187.667 430.427 195.2 449.894 194.8C442.427 183.333 443.36 173.867 452.694 166.4C450.694 176.4 453.894 181.6 462.294 182C465.76 181.2 468.36 179.6 470.094 177.2C471.827 174.667 472.56 171.067 472.294 166.4V106.6L442.894 125.2C445.827 126.533 448.094 127.933 449.694 129.4C451.294 130.733 452.294 132.333 452.694 134.2C455.227 144.067 452.56 151.8 444.694 157.4C447.627 151.933 447.76 146.4 445.094 140.8C440.294 134.4 432.96 133.267 423.094 137.4Z" stroke="black" stroke-width="2" mask="url(#path-1-outside-1_3_13)"/>
<path d="M616.227 203.6C611.293 196.133 604.693 194.267 596.427 198C588.293 203.733 579.16 207.067 569.027 208C561.693 215.6 553.693 219.2 545.027 218.8C550.493 212.533 550.427 207.267 544.827 203C542.56 202.333 540.36 201.6 538.227 200.8C536.093 200 533.893 199.067 531.627 198C524.56 196.4 520.093 198.267 518.227 203.6V65C521.56 71.1334 528.093 73.2 537.827 71.2C541.293 69.6 544.893 68.2667 548.627 67.2C552.36 66.1334 556.093 65.4667 559.827 65.2C572.893 63.3334 578.827 56.7334 577.627 45.4C583.627 52.8667 584.293 60 579.627 66.8C584.427 67.8667 588.96 69.1334 593.227 70.6C602.427 75 610.16 72.9334 616.427 64.4V106.2C615.893 112.733 619.627 116.733 627.627 118.2C614.693 126.2 601.827 134.067 589.027 141.8C576.227 149.533 563.36 157.4 550.427 165.4C547.093 167.933 544.693 170.333 543.227 172.6C541.76 174.867 541.093 177.133 541.227 179.4C542.827 189.533 552.893 194.2 571.427 193.4C584.76 191 592.027 184.8 593.227 174.8C593.627 164.133 587.093 160.2 573.627 163C580.827 158.733 587.893 154.467 594.827 150.2C601.893 145.933 609.027 141.6 616.227 137.2V203.6ZM593.227 126V96.4C591.36 81.2 581.16 74 562.627 74.8C569.827 85.3334 568.893 94.3334 559.827 101.8C561.693 92.3334 558.56 87.3334 550.427 86.8C544.027 88.1334 540.96 93.1334 541.227 101.8V159.4L569.027 141.6C566.76 140.4 564.827 139.067 563.227 137.6C561.627 136 560.493 134.267 559.827 132.4C557.56 122.933 560.227 115.667 567.827 110.6C564.893 115.8 564.627 120.933 567.027 126C569.427 129.2 572.36 131.067 575.827 131.6C579.427 132.133 583.56 131.467 588.227 129.6L593.227 126Z" stroke="black" stroke-width="2" mask="url(#path-1-outside-1_3_13)"/>
<path d="M655.731 63.8C659.598 73 666.131 75.4667 675.331 71.2C682.931 67.0667 691.065 64.4667 699.731 63.4C705.998 57.1334 705.131 51.8 697.131 47.4C704.731 44.6 711.331 46.8 716.931 54C719.065 55.4667 720.931 56.1334 722.531 56C724.131 55.8667 725.731 54.8 727.331 52.8C728.531 56.8 726.731 59.8667 721.931 62C724.598 62.1334 727.198 62.6 729.731 63.4C732.398 64.0667 734.865 65 737.131 66.2C744.465 70.6 749.998 69.6667 753.731 63.4C755.198 72.2 752.998 77.6 747.131 79.6C749.665 80.2667 751.865 81.3334 753.731 82.8C755.731 84.1334 757.331 86.1334 758.531 88.8C759.998 94.2667 763.265 97.2 768.331 97.6C767.131 102.8 762.931 105.2 755.731 104.8V173.2C754.798 187.733 758.731 197.8 767.531 203.4C745.798 205.267 734.531 195.4 733.731 173.8V89.2C730.931 100.8 723.531 104.733 711.531 101C718.865 99.2667 722.931 95.3334 723.731 89.2C724.131 81.2 719.598 76.4 710.131 74.8C696.665 74.1334 686.865 76.7334 680.731 82.6V177.6C681.131 191.867 686.531 199.267 696.931 199.8C694.398 198.733 693.131 196.667 693.131 193.6C693.798 186.533 697.798 184.067 705.131 186.2C705.931 180.467 709.865 178.2 716.931 179.4C711.065 180.467 709.265 184.067 711.531 190.2C712.998 195 712.865 199.533 711.131 203.8C705.131 212.467 696.065 212.6 683.931 204.2C672.731 196.067 663.331 195.8 655.731 203.4V160C651.998 148.8 643.598 146.333 630.531 152.6C635.331 139.267 643.731 133.6 655.731 135.6V63.8Z" stroke="black" stroke-width="2" mask="url(#path-1-outside-1_3_13)"/>
</svg>
