<svg width="801" height="378" viewBox="0 0 801 378" fill="none" xmlns="http://www.w3.org/2000/svg">
<path d="M172 167C173.067 178.333 171.867 187 168.4 193C165.067 198.867 159.333 202.4 151.2 203.6C153.067 206.8 153.267 210.4 151.8 214.4C150.867 218.667 152.2 221.333 155.8 222.4C141.933 223.867 135.733 217.6 137.2 203.6C132 207.2 125.8 207.467 118.6 204.4C131.933 209.867 138.4 219.867 138 234.4C137.6 239.867 135.333 244.667 131.2 248.8C134.4 249.733 137.2 251.333 139.6 253.6C142.133 255.867 144.2 258.4 145.8 261.2C147.533 264 148.933 266.8 150 269.6C151.067 272.533 151.8 275 152.2 277C153.4 282.6 156.8 285.6 162.4 286C168.133 286 171 282.867 171 276.6C174.067 289.133 170.4 296.867 160 299.8C152.933 335 133.067 354.533 100.4 358.4C94.4 359.6 91.1333 363 90.6 368.6C90.3333 370.333 90.5333 371.933 91.2 373.4C92 375 93.1333 376.533 94.6 378C86.4667 376.4 81.8667 370.267 80.8 359.6C68.6667 356.267 58.2667 351.267 49.6 344.6C40.9333 338.067 34 329.6 28.8 319.2C24 311.333 18.4 308.2 12 309.8C9.33334 310.467 7.33334 311.733 6.00001 313.6C4.66668 315.467 4.00001 317.8 4.00001 320.6C-1.19999 309.533 -0.466659 301.2 6.20001 295.6C12.4667 292.133 17.7333 291.733 22 294.4C20.5333 290 20.4667 285.6 21.8 281.2C23.1333 276.8 25.9333 272.6 30.2 268.6C38.6 260.067 39.0667 250.267 31.6 239.2C40.8 246 46.4 253.467 48.4 261.6C50.4 269.867 48.8667 278.533 43.8 287.6C47.5333 282.667 54 279.8 63.2 279C70 276.867 72.5333 272.6 70.8 266.2C74.1333 270.733 74.6 275.533 72.2 280.6C76.3333 281.667 80.3333 283.4 84.2 285.8C88.0667 288.2 91.5333 291.6 94.6 296C97.5333 298.667 100.533 300.2 103.6 300.6C106.8 301.133 109.8 300.267 112.6 298C111.133 305.067 107.2 309 100.8 309.8C102.667 312.467 103.467 315.067 103.2 317.6C103.067 320.133 102 322.933 100 326C96.4 332.667 96.1333 338.4 99.2 343.2C89.4667 336.267 85.6 327.533 87.6 317C82.5333 323.267 76.8 322.6 70.4 315C79.0667 317 83.6 314.067 84 306.2C84 297.533 80.0667 291.867 72.2 289.2C56.3333 288 47.2667 292.867 45 303.8C43.8 313 44.4 320.867 46.8 327.4C49.2 334.067 53.6 339.533 60 343.8C81.2 353.933 98.2667 355.933 111.2 349.8C124.267 344.6 129.6 337.533 127.2 328.6C126.267 326.467 125 324.933 123.4 324C121.933 323.067 119.867 322.733 117.2 323C121.733 321.133 125.533 321.067 128.6 322.8C131.8 324.533 134.2 327.733 135.8 332.4C149.667 308.8 149.067 286.6 134 265.8C131.733 263.933 129.467 262 127.2 260C125.067 258 122.867 256.067 120.6 254.2C120.333 258.733 119.333 262.333 117.6 265C115.867 267.667 113.067 269.333 109.2 270C113.867 261.733 113.4 255.6 107.8 251.6C104.333 250.933 100.8 249.933 97.2 248.6C93.7333 247.4 90.2667 245.867 86.8 244C77.7333 239.733 71.3333 241.6 67.6 249.6C67.6 234.667 67.6 218.6 67.6 201.4C67.7333 184.2 67.8 166.867 67.8 149.4C67.8 131.8 67.8 114.467 67.8 97.4C67.9333 80.3334 68 64.4 68 49.6C67.8667 47.2 67.4 45.3334 66.6 44C65.8 42.5334 64.8 41.5334 63.6 41C62.5333 40.3334 61.3333 40 60 40C58.6667 39.8667 57.4 39.8667 56.2 40C61.9333 35.3334 67.6667 30.6 73.4 25.8C79.1333 21 84.8667 16.2667 90.6 11.6L90.2 40.4C95.8 41.3334 99.7333 43.7334 102 47.6C104.4 51.3334 105.2 56.4 104.4 62.8C103.733 60 102.6 58 101 56.8C99.5333 55.6 97.5333 55 95 55C93.8 55.2667 92.7333 55.9334 91.8 57C91 58.0667 90.4667 59.7334 90.2 62L89.4 196.6V221C89.8 232.067 94.6667 237.8 104 238.2C114.133 238.867 120.133 234.467 122 225C122.533 217 119.933 212.067 114.2 210.2C117.533 214.2 118 217.667 115.6 220.6C111.733 224.2 107.2 223.933 102 219.8C97.4667 215.933 96.9333 210.333 100.4 203C102.4 200.867 104.6 199.067 107 197.6C109.533 196 112.4 194.733 115.6 193.8C128.533 189.4 133.467 181.867 130.4 171.2C134.4 172.933 137.067 175.2 138.4 178C139.733 180.8 140 183.933 139.2 187.4C141.333 184.6 143.8 182.467 146.6 181C149.533 179.4 153.067 178.733 157.2 179C161.867 178.733 165.333 177.667 167.6 175.8C170 173.8 171.467 170.867 172 167Z" fill="white"/>
<path d="M270.305 203.6C265.371 196.133 258.771 194.267 250.505 198C242.371 203.733 233.238 207.067 223.105 208C215.771 215.6 207.771 219.2 199.105 218.8C204.571 212.533 204.505 207.267 198.905 203C196.638 202.333 194.438 201.6 192.305 200.8C190.171 200 187.971 199.067 185.705 198C178.638 196.4 174.171 198.267 172.305 203.6V65C175.638 71.1334 182.171 73.2 191.905 71.2C195.371 69.6 198.971 68.2667 202.705 67.2C206.438 66.1334 210.171 65.4667 213.905 65.2C226.971 63.3334 232.905 56.7334 231.705 45.4C237.705 52.8667 238.371 60 233.705 66.8C238.505 67.8667 243.038 69.1334 247.305 70.6C256.505 75 264.238 72.9334 270.505 64.4V106.2C269.971 112.733 273.705 116.733 281.705 118.2C268.771 126.2 255.905 134.067 243.105 141.8C230.305 149.533 217.438 157.4 204.505 165.4C201.171 167.933 198.771 170.333 197.305 172.6C195.838 174.867 195.171 177.133 195.305 179.4C196.905 189.533 206.971 194.2 225.505 193.4C238.838 191 246.105 184.8 247.305 174.8C247.705 164.133 241.171 160.2 227.705 163C234.905 158.733 241.971 154.467 248.905 150.2C255.971 145.933 263.105 141.6 270.305 137.2V203.6ZM247.305 126V96.4C245.438 81.2 235.238 74 216.705 74.8C223.905 85.3334 222.971 94.3334 213.905 101.8C215.771 92.3334 212.638 87.3334 204.505 86.8C198.105 88.1334 195.038 93.1334 195.305 101.8V159.4L223.105 141.6C220.838 140.4 218.905 139.067 217.305 137.6C215.705 136 214.571 134.267 213.905 132.4C211.638 122.933 214.305 115.667 221.905 110.6C218.971 115.8 218.705 120.933 221.105 126C223.505 129.2 226.438 131.067 229.905 131.6C233.505 132.133 237.638 131.467 242.305 129.6L247.305 126Z" fill="white"/>
<path d="M359.409 202.6C352.743 208.467 353.543 213.8 361.809 218.6C354.343 221 347.743 218.667 342.009 211.6C338.409 208.533 335.009 209 331.809 213C331.009 208.867 332.943 205.733 337.609 203.6C332.143 203.467 327.076 202.2 322.409 199.8C315.076 195.133 309.543 196.067 305.809 202.6C304.609 193.667 306.876 188.4 312.609 186.8C310.076 186.133 307.809 185.067 305.809 183.6C303.809 182.133 302.209 180.133 301.009 177.6C300.076 172.4 296.943 169.467 291.609 168.8C292.943 163.867 297.209 161.467 304.409 161.6V94.4C304.809 80.1334 300.809 70.2667 292.409 64.8C313.743 62.8 324.809 72.4 325.609 93.6V177.4C328.409 165.667 335.743 161.6 347.609 165.2C340.276 167.2 336.209 171.267 335.409 177.4C335.143 185 339.743 189.667 349.209 191.4C361.876 192.067 371.409 189.4 377.809 183.4C377.943 183.267 377.809 184.133 377.409 186C377.009 187.733 376.076 189.8 374.609 192.2C373.276 194.467 371.343 196.667 368.809 198.8C366.409 200.8 363.276 202.067 359.409 202.6ZM325.609 26.4C325.609 29.7334 325.743 32.7334 326.009 35.4C326.276 37.9334 327.009 40.0667 328.209 41.8C329.409 43.4 331.209 44.4667 333.609 45C336.143 45.5334 339.609 45.3334 344.009 44.4C339.343 50.8 334.543 54.9334 329.609 56.8C324.809 58.5334 320.409 58.8667 316.409 57.8C312.543 56.7334 309.343 54.6667 306.809 51.6C304.276 48.5334 303.009 45.2667 303.009 41.8C302.209 38.3334 300.276 36.1334 297.209 35.2C294.143 34.1334 289.943 34.0667 284.609 35C291.409 30.8667 298.209 26.8 305.009 22.8C311.943 18.6667 318.809 14.5334 325.609 10.4V26.4Z" fill="white"/>
<path d="M471.294 26.4C479.427 33.2 487.827 32.8667 496.494 25.4C501.827 22.0667 506.894 20.3334 511.694 20.2C516.494 20.0667 521.294 21.7334 526.094 25.2C532.894 27.2 536.027 24.6 535.494 17.4C534.56 14.3334 532.227 12.4 528.494 11.6C539.96 10.8 544.76 15.4 542.894 25.4C541.96 29.2667 539.427 31.7334 535.294 32.8C543.16 31.7334 547.76 33.5334 549.094 38.2C552.427 43.1334 556.76 43.8667 562.094 40.4C559.027 48.9334 552.16 53 541.494 52.6C539.227 51.9334 537.16 50.9334 535.294 49.6C533.427 48.2667 531.894 46.4667 530.694 44.2C529.227 46.8667 527.427 48.7334 525.294 49.8C523.16 50.8667 520.76 51.2667 518.094 51C513.16 49.9334 510.694 46.5334 510.694 40.8C514.027 43.7334 517.16 43.3334 520.094 39.6C520.094 34.9334 517.96 32.8 513.694 33.2C506.894 33.6 501.894 35.6667 498.694 39.4C495.627 43.1334 494.427 48.8 495.094 56.4C498.16 65.7334 505.56 68.8667 517.294 65.8C513.694 75.2667 506.294 78.2667 495.094 74.8V204.8C492.16 198.667 485.427 196.6 474.894 198.6C467.294 201.933 459.56 203.867 451.694 204.4C445.16 205.467 440.294 207.667 437.094 211C434.027 214.333 432.827 219 433.494 225C426.96 217.533 426.16 210.2 431.094 203C428.827 202.333 426.494 201.733 424.094 201.2C421.694 200.533 419.36 199.733 417.094 198.8C407.627 194.4 399.56 196.733 392.894 205.8V161.6C393.294 155.333 389.36 151.2 381.094 149.2C394.56 141.067 407.894 132.933 421.094 124.8C434.427 116.667 447.827 108.467 461.294 100.2C467.294 95.6667 470.627 91.3334 471.294 87.2V26.4ZM422.094 137.4L417.094 140.8V172.2C418.827 187.667 429.427 195.2 448.894 194.8C441.427 183.333 442.36 173.867 451.694 166.4C449.694 176.4 452.894 181.6 461.294 182C464.76 181.2 467.36 179.6 469.094 177.2C470.827 174.667 471.56 171.067 471.294 166.4V106.6L441.894 125.2C444.827 126.533 447.094 127.933 448.694 129.4C450.294 130.733 451.294 132.333 451.694 134.2C454.227 144.067 451.56 151.8 443.694 157.4C446.627 151.933 446.76 146.4 444.094 140.8C439.294 134.4 431.96 133.267 422.094 137.4Z" fill="white"/>
<path d="M615.227 203.6C610.293 196.133 603.693 194.267 595.427 198C587.293 203.733 578.16 207.067 568.027 208C560.693 215.6 552.693 219.2 544.027 218.8C549.493 212.533 549.427 207.267 543.827 203C541.56 202.333 539.36 201.6 537.227 200.8C535.093 200 532.893 199.067 530.627 198C523.56 196.4 519.093 198.267 517.227 203.6V65C520.56 71.1334 527.093 73.2 536.827 71.2C540.293 69.6 543.893 68.2667 547.627 67.2C551.36 66.1334 555.093 65.4667 558.827 65.2C571.893 63.3334 577.827 56.7334 576.627 45.4C582.627 52.8667 583.293 60 578.627 66.8C583.427 67.8667 587.96 69.1334 592.227 70.6C601.427 75 609.16 72.9334 615.427 64.4V106.2C614.893 112.733 618.627 116.733 626.627 118.2C613.693 126.2 600.827 134.067 588.027 141.8C575.227 149.533 562.36 157.4 549.427 165.4C546.093 167.933 543.693 170.333 542.227 172.6C540.76 174.867 540.093 177.133 540.227 179.4C541.827 189.533 551.893 194.2 570.427 193.4C583.76 191 591.027 184.8 592.227 174.8C592.627 164.133 586.093 160.2 572.627 163C579.827 158.733 586.893 154.467 593.827 150.2C600.893 145.933 608.027 141.6 615.227 137.2V203.6ZM592.227 126V96.4C590.36 81.2 580.16 74 561.627 74.8C568.827 85.3334 567.893 94.3334 558.827 101.8C560.693 92.3334 557.56 87.3334 549.427 86.8C543.027 88.1334 539.96 93.1334 540.227 101.8V159.4L568.027 141.6C565.76 140.4 563.827 139.067 562.227 137.6C560.627 136 559.493 134.267 558.827 132.4C556.56 122.933 559.227 115.667 566.827 110.6C563.893 115.8 563.627 120.933 566.027 126C568.427 129.2 571.36 131.067 574.827 131.6C578.427 132.133 582.56 131.467 587.227 129.6L592.227 126Z" fill="white"/>
<path d="M654.731 63.8C658.598 73 665.131 75.4667 674.331 71.2C681.931 67.0667 690.065 64.4667 698.731 63.4C704.998 57.1334 704.131 51.8 696.131 47.4C703.731 44.6 710.331 46.8 715.931 54C718.065 55.4667 719.931 56.1334 721.531 56C723.131 55.8667 724.731 54.8 726.331 52.8C727.531 56.8 725.731 59.8667 720.931 62C723.598 62.1334 726.198 62.6 728.731 63.4C731.398 64.0667 733.865 65 736.131 66.2C743.465 70.6 748.998 69.6667 752.731 63.4C754.198 72.2 751.998 77.6 746.131 79.6C748.665 80.2667 750.865 81.3334 752.731 82.8C754.731 84.1334 756.331 86.1334 757.531 88.8C758.998 94.2667 762.265 97.2 767.331 97.6C766.131 102.8 761.931 105.2 754.731 104.8V173.2C753.798 187.733 757.731 197.8 766.531 203.4C744.798 205.267 733.531 195.4 732.731 173.8V89.2C729.931 100.8 722.531 104.733 710.531 101C717.865 99.2667 721.931 95.3334 722.731 89.2C723.131 81.2 718.598 76.4 709.131 74.8C695.665 74.1334 685.865 76.7334 679.731 82.6V177.6C680.131 191.867 685.531 199.267 695.931 199.8C693.398 198.733 692.131 196.667 692.131 193.6C692.798 186.533 696.798 184.067 704.131 186.2C704.931 180.467 708.865 178.2 715.931 179.4C710.065 180.467 708.265 184.067 710.531 190.2C711.998 195 711.865 199.533 710.131 203.8C704.131 212.467 695.065 212.6 682.931 204.2C671.731 196.067 662.331 195.8 654.731 203.4V160C650.998 148.8 642.598 146.333 629.531 152.6C634.331 139.267 642.731 133.6 654.731 135.6V63.8Z" fill="white"/>
</svg>
